<svg width="1709" height="1709" viewBox="0 0 1709 1709" fill="none" xmlns="http://www.w3.org/2000/svg">
<g clip-path="url(#clip0_394_1091)">
<path d="M324.065 0H1384.97L1385.68 0.126923C1392.28 1.23866 1400.47 1.60374 1407.44 2.42529C1420.87 3.96284 1434.21 6.30824 1447.37 9.44873C1526.85 28.6836 1596.83 75.7194 1644.65 142.054C1674.28 183.135 1694.35 230.305 1703.44 280.13C1705.97 294.182 1706.71 311.79 1709 323.323V1385.81L1708.87 1386.58C1705.27 1409.33 1705.63 1421.67 1699.84 1446.33C1681.05 1525.19 1634.87 1594.82 1569.53 1642.79C1528.04 1673.28 1480.2 1693.96 1429.59 1703.3C1414.36 1706.07 1399.6 1706.61 1385.96 1709H1278.99H1050.1H323.131C308.342 1706.66 294.866 1706.11 279.129 1703.23C227.966 1693.71 179.659 1672.62 137.9 1641.56C73.1583 1593.45 27.5027 1524.01 8.99854 1445.51C3.32297 1421.11 3.40446 1407.87 0 1384.95V323.862C0.772913 320.282 1.41372 311.013 1.84726 306.866C2.76318 297.631 4.05652 288.437 5.72404 279.308C15.1524 228.427 36.0252 180.355 66.7642 138.728C114.909 73.49 184.683 27.498 263.617 8.97183C288.022 3.3085 300.791 3.58745 323.28 0.125784L324.065 0Z" fill="#2A2A2A"/>
<path d="M106.461 1222.29C183.803 1204.4 257.534 1173.48 324.491 1130.83C519.046 1006.1 608.752 808.768 736.547 625.844C810.615 519.825 887.98 428.928 993.298 352.414C1074.73 292.196 1168.08 250.05 1267.1 228.788C1290.3 223.912 1398.89 206.589 1415.32 216.789C1417.13 217.912 1418.57 219.516 1418.95 221.675C1420.16 228.69 1413.69 236.184 1409.48 241.152C1398.82 253.73 1387.96 266.083 1377.77 279.057C1335.02 333.837 1298.41 393.142 1268.58 455.908C1165.4 672.564 1136.95 960.419 1155.7 1198.74C1167.27 1342.68 1197.38 1484.53 1245.28 1620.77C1253.33 1643.81 1268.72 1687.52 1278.99 1709H1050.1C984.728 1536.58 945.032 1355.5 932.29 1171.55C926.682 1092.78 925.698 1025.67 932.649 946.709C941.511 845.938 962.164 760.658 987.065 664.049C961.18 679.503 944.348 707.124 928.126 731.908C890.817 788.888 861.235 850.728 828.005 910.076C732.002 1079.14 619.434 1219.72 421.529 1263.01C343.999 1279.78 263.606 1278.04 186.876 1257.93C164.562 1252.28 136.978 1244.77 116.309 1234.21C112.724 1232.38 108.555 1225.88 106.461 1222.29Z" fill="#E1E0E0"/>
<path d="M816.127 1168.56C818.206 1169.46 822.274 1172.13 824.382 1173.42C824.657 1191.51 825.99 1211.36 826.806 1229.64C828.474 1264.74 829.86 1299.84 830.965 1334.96C831.419 1349.68 832.705 1369.46 831.145 1384.08C829.957 1389.04 823.322 1394.78 819.345 1396.84C697.973 1459.75 578.658 1471.13 445.431 1438.73C440.099 1437.39 434.779 1435.99 429.472 1434.55C421.587 1432.36 406.496 1427.1 410.105 1416.55C413.274 1415.36 436.795 1412.73 442.119 1411.95C456.53 1409.8 470.862 1407.14 485.087 1403.98C630.188 1371.8 736.712 1293.06 816.127 1168.56Z" fill="#E9E9E8"/>
</g>
<defs>
<clipPath id="clip0_394_1091">
<rect width="1709" height="1709" fill="white"/>
</clipPath>
</defs>
</svg>
