<svg width="571" height="108" viewBox="0 0 571 108" fill="none" xmlns="http://www.w3.org/2000/svg">
<path d="M564.914 11.5586L565.257 11.8305C565.58 19.8648 565.34 29.7062 565.337 37.826L565.329 86.0842L553.854 86.0638C553.846 83.4446 553.857 80.8253 553.888 78.2066C546.157 89.1123 532.569 90.4392 522.62 81.6498C516.641 76.0271 515.454 68.0426 516.031 60.2098C517.452 40.9441 541.455 32.8633 553.64 48.3357C553.372 37.5273 553.283 22.353 553.651 11.6126C557.405 11.6252 561.159 11.6072 564.914 11.5586ZM542.519 77.698C551.176 75.4439 555.457 68.2177 553.121 59.5237C552.207 56.1748 550.017 53.3165 547.021 51.5615C544.732 50.2435 541.343 49.5181 538.743 49.9114C526.025 51.8251 523.598 68.7201 532.848 75.5052C535.549 77.4486 538.907 78.2558 542.199 77.7531C542.308 77.7373 542.413 77.7189 542.519 77.698Z" fill="#EDEDED"/>
<path d="M330.265 11.6352L341.818 11.5557C341.868 23.5012 342.186 37.1043 341.712 48.9362C348.189 38.2987 364.103 37.7033 372.821 45.8927C376.785 49.6499 379.112 54.8094 379.307 60.2628L379.313 66.958C379.368 67.9458 379.232 68.8096 379.076 69.781C378.198 75.2979 375.176 80.247 370.67 83.5563C360.962 90.5398 348.443 87.7449 341.592 78.1858C341.706 80.6642 341.664 83.5588 341.684 86.0709L330.237 86.0751C330.193 82.7068 330.19 79.3045 330.212 75.9342C330.368 54.5213 329.964 33.0415 330.265 11.6352ZM356.255 77.876C374.923 74.5709 370.179 48.0343 353.933 49.9126C336.213 52.6566 338.799 78.495 356.255 77.876Z" fill="#EDEDED"/>
<path d="M448.579 40.4615C456.261 39.131 462.685 42.9695 467.111 48.9209C467.016 46.5644 467.066 44.0873 467.074 41.7211L478.546 41.666L478.543 86.0751L467.122 86.0785C467.1 84.6213 467.42 79.565 466.918 78.7105L466.314 79.2483C465.932 79.8117 465.53 80.3617 465.11 80.8975C458.613 89.0315 445.093 89.2297 437.4 82.7575C422.69 70.3828 427.665 42.6544 448.579 40.4615ZM454.864 77.8513C458.833 77.2149 461.76 76.0091 464.193 72.6146C468.557 66.5318 467.612 56.5449 461.341 52.0743C459.19 50.5292 455.397 49.4113 452.754 49.9149C444.309 51.0021 439.613 57.7349 440.714 66.0517C441.16 69.6878 443.036 72.9977 445.929 75.2512C448.398 77.1367 451.782 78.0895 454.864 77.8513Z" fill="#EDEDED"/>
<path d="M379.904 62.0415C380.877 49.2753 391.758 39.5464 404.57 39.9881C417.382 40.4298 427.566 50.8847 427.653 63.6877C427.742 76.4904 417.706 87.0847 404.899 87.7027C392.095 88.3209 381.08 78.7428 379.932 65.991C379.815 64.6775 379.804 63.3565 379.904 62.0415ZM405.328 77.3965C421.83 74.626 419.779 49.3401 402.477 50.1771C401.301 50.3984 400.099 50.6147 398.973 51.0581C389.344 54.8509 388.265 69.7744 396.682 75.3962C399.392 77.205 402.101 77.566 405.328 77.3965Z" fill="#EDEDED"/>
<path d="M230.923 40.1492C244.073 38.53 256.033 47.9021 257.587 61.0433C259.141 74.1848 249.695 86.0812 236.529 87.5656C223.458 89.0392 211.651 79.6891 210.109 66.6426C208.566 53.596 217.868 41.7564 230.923 40.1492ZM235.434 77.3872C251.969 74.7465 249.778 49.3064 232.771 50.1751C224.064 51.6573 220.007 58.1454 221.426 66.9076C222.608 74.2067 228.23 77.7095 235.434 77.3872Z" fill="#EDEDED"/>
<path d="M315.481 41.7365C319.498 41.6446 323.754 41.7081 327.786 41.7C327.215 44.8751 325.897 48.9549 324.946 52.0474L315.183 86.0808L303.717 86.0677C300.554 76.1912 296.214 65.0311 292.691 55.0411C291.574 58.8019 289.74 63.6143 288.399 67.3915C286.22 73.6313 284.007 79.8596 281.76 86.0758L270.432 86.0925C269.281 81.6555 267.622 76.4827 266.319 72.0088L257.602 41.7417C261.624 41.639 265.933 41.7097 269.977 41.7036C272.136 51.9987 275.086 62.9846 277.514 73.3245C278.689 70.5146 280.044 66.2433 281.091 63.2415L288.374 42.3705C291.189 42.2948 294.269 42.36 297.103 42.365L303.843 61.7218C305.161 65.5109 306.805 69.8716 307.758 73.6997C310.172 63.0581 313.163 52.4048 315.481 41.7365Z" fill="#EDEDED"/>
<path d="M149.443 14.7697C161.806 14.4372 175.507 14.7302 187.975 14.7288C188.013 18.0876 188.008 21.4467 187.962 24.8054L160.933 24.84C160.989 31.598 160.988 38.3563 160.93 45.1144C169.143 45.2895 177.865 45.1414 186.118 45.1422C186.043 48.5047 186.097 52.0281 186.098 55.4036L182.414 55.3816C175.253 55.358 168.092 55.3699 160.93 55.4181C161.105 65.4782 160.965 75.979 160.963 86.0723L149.45 86.0701L149.443 14.7697Z" fill="#EDEDED"/>
<path d="M205.349 11.5703L205.422 11.6136C205.855 12.1792 205.666 78.192 205.657 86.0779L194.298 86.0704C193.76 85.365 193.992 18.3014 194.026 11.6111C197.747 11.6639 201.617 11.5898 205.349 11.5703Z" fill="#EDEDED"/>
<path d="M507.686 40.4515C511.641 39.7865 515.27 41.1324 518.801 42.5998C517.784 45.0627 515.387 50.1676 514.055 52.2789C506.566 47.5848 497.689 50.9086 496.532 59.1283C495.468 66.7133 496.056 78.2217 496.072 86.0665L492.828 86.0885L484.375 86.089V41.725L496.086 41.6596L496.042 47.9213C498.812 43.4493 502.502 41.0514 507.686 40.4515Z" fill="#EDEDED"/>
<path d="M379.307 60.2627L379.903 62.0414C379.803 63.3563 379.814 64.6773 379.931 65.9909L379.312 66.9579L379.307 60.2627Z" fill="#030022" fill-opacity="0.65098"/>
<path d="M18.9861 0H89.1098C95.6467 1.28754 100.604 3.88235 104.418 9.47825C108.677 15.7258 108.036 22.1375 108.042 29.2513L108.052 47.7079L108.047 73.9967C108.04 85.6195 109.766 97.0018 98.5907 104.317C95.4976 106.341 92.975 107.171 89.4058 108H80.7393H66.3122H18.2922C7.74634 104.822 2.2756 100.431 0 89.2531V18.7135C1.96966 7.99623 8.24244 1.9032 18.9861 0Z" fill="#395CDA"/>
<path d="M6.12695 77.4565C26.9153 71.7787 33.6714 59.5939 44.6603 42.3339C55.0977 25.9394 69.5379 13.2178 90.1036 13.5874C87.8255 16.9667 84.9116 20.0759 82.9068 23.6223C68.7233 48.7146 70.4003 81.9719 80.7395 108H66.3124C58.2232 85.1259 55.9341 65.0248 62.4713 41.5323C59.0066 44.8346 55.2421 51.5899 53.0944 55.9764C44.0689 74.4102 27.2434 86.5608 6.12695 77.4565Z" fill="#CED6F9"/>
<path d="M51.6397 73.9268C52.4415 75.4457 52.5494 85.3302 52.6229 87.6472C52.5538 87.6895 52.4841 87.7316 52.4142 87.7728C45.008 92.1557 36.5408 93.0366 28.2584 90.927C27.2259 90.7194 25.84 90.0605 24.8418 89.631C25.7664 89.5194 26.6892 89.3928 27.6097 89.2514C38.9729 87.4635 45.0652 82.923 51.6397 73.9268Z" fill="#CED6F9"/>
</svg>
